<svg width="64" height="64" viewBox="0 0 64 64" fill="none" xmlns="http://www.w3.org/2000/svg">
<g id="Group 13670">
<circle id="Ellipse 148" cx="32" cy="32" r="32" fill="#0080FF" fill-opacity="0.1"/>
<g id="&#231;&#148;&#179;&#230;&#138;&#165; 1">
<path id="Vector" d="M41.1332 17.1489C41.3386 17.0393 41.5697 16.9885 41.8016 17.0022C42.0335 17.0158 42.2572 17.0933 42.4486 17.2263C42.64 17.3593 42.7917 17.5427 42.8873 17.7566C42.9829 17.9705 43.0187 18.2067 42.9908 18.4397L39.8779 44.8343C39.8542 45.0337 39.7846 45.2248 39.6746 45.3921C39.5647 45.5595 39.4175 45.6985 39.2448 45.798C39.0721 45.8975 38.8788 45.9547 38.6803 45.9651C38.4818 45.9754 38.2836 45.9386 38.1017 45.8577L30.0673 42.2768L25.8144 46.6188C25.6474 46.7892 25.4366 46.9091 25.2057 46.9648C24.9749 47.0205 24.7332 47.0099 24.508 46.9341C24.2828 46.8583 24.0831 46.7204 23.9314 46.5359C23.7798 46.3515 23.6822 46.1278 23.6497 45.8902L23.6378 45.7137L23.6395 40.3724C32.2439 29.724 37.6182 23.0542 39.7591 20.3613L40.0119 20.0442C40.5598 19.3516 40.8313 19.0019 40.8228 18.9951C40.8143 18.9882 40.363 19.4339 39.4707 20.3321L38.3612 21.4549C35.3874 24.4667 29.7196 30.2468 21.3578 38.7936L21.7904 38.3514L13.6797 34.0437C13.5024 33.9492 13.3496 33.8137 13.2339 33.6483C13.1181 33.4829 13.0426 33.2923 13.0135 33.0918C12.9844 32.8914 13.0025 32.6868 13.0664 32.4948C13.1303 32.3028 13.2381 32.1287 13.3812 31.9867L13.5186 31.8684L13.678 31.769L41.1332 17.1489Z" fill="url(#paint0_linear_245_2994)"/>
</g>
</g>
<defs>
<linearGradient id="paint0_linear_245_2994" x1="28" y1="17" x2="28" y2="47" gradientUnits="userSpaceOnUse">
<stop stop-color="#399CFF"/>
<stop offset="1" stop-color="#0A84FF"/>
</linearGradient>
</defs>
</svg>
