<svg width="64" height="64" viewBox="0 0 64 64" fill="none" xmlns="http://www.w3.org/2000/svg">
<g id="Group 13661">
<circle id="Ellipse 148" cx="32" cy="32" r="32" fill="#0080FF" fill-opacity="0.1"/>
<g id="&#231;&#148;&#179;&#230;&#138;&#165; 1">
<path id="Union" fill-rule="evenodd" clip-rule="evenodd" d="M31.87 11.9382C32.0096 11.7986 32.1989 11.7202 32.3962 11.7202C32.5936 11.7202 32.7829 11.7986 32.9224 11.9382C33.062 12.0777 33.1404 12.267 33.1404 12.4644V15.441C33.1404 15.5387 33.1211 15.6355 33.0837 15.7257C33.0463 15.816 32.9915 15.8981 32.9224 15.9672C32.8533 16.0363 32.7713 16.0911 32.681 16.1285C32.5907 16.1659 32.4939 16.1851 32.3962 16.1851C32.2985 16.1851 32.2017 16.1659 32.1114 16.1285C32.0212 16.0911 31.9391 16.0363 31.87 15.9672C31.8009 15.8981 31.7461 15.816 31.7087 15.7257C31.6713 15.6355 31.6521 15.5387 31.6521 15.441V12.4644C31.6521 12.267 31.7305 12.0777 31.87 11.9382ZM47.2792 29.5798H50.2558C50.4532 29.5798 50.6424 29.6582 50.782 29.7978C50.9216 29.9373 51 30.1266 51 30.3239C51 30.5213 50.9216 30.7106 50.782 30.8501C50.6424 30.9897 50.4532 31.0681 50.2558 31.0681H47.2792C47.0818 31.0681 46.8926 30.9897 46.753 30.8501C46.6135 30.7106 46.5351 30.5213 46.5351 30.3239C46.5351 30.1266 46.6135 29.9373 46.753 29.7978C46.8926 29.6582 47.0818 29.5798 47.2792 29.5798ZM14.5366 29.5798H17.5132C17.7106 29.5798 17.8999 29.6582 18.0394 29.7978C18.179 29.9373 18.2574 30.1266 18.2574 30.3239C18.2574 30.5213 18.179 30.7106 18.0394 30.8501C17.8999 30.9897 17.7106 31.0681 17.5132 31.0681H14.5366C14.3393 31.0681 14.15 30.9897 14.0104 30.8501C13.8709 30.7106 13.7925 30.5213 13.7925 30.3239C13.7925 30.1266 13.8709 29.9373 14.0104 29.7978C14.15 29.6582 14.3393 29.5798 14.5366 29.5798ZM42.2333 19.5147C42.2707 19.4244 42.3255 19.3424 42.3946 19.2733L44.4991 17.1689C44.5682 17.0998 44.6502 17.045 44.7404 17.0076C44.8307 16.9702 44.9275 16.951 45.0252 16.951C45.1229 16.951 45.2196 16.9702 45.3099 17.0076C45.4002 17.045 45.4822 17.0998 45.5513 17.1689C45.6204 17.238 45.6752 17.32 45.7126 17.4103C45.75 17.5005 45.7692 17.5973 45.7692 17.695C45.7692 17.7927 45.75 17.8895 45.7126 17.9797C45.6752 18.07 45.6204 18.152 45.5513 18.2211L43.4468 20.3256C43.3777 20.3946 43.2957 20.4495 43.2055 20.4868C43.1152 20.5242 43.0184 20.5435 42.9207 20.5435C42.823 20.5435 42.7263 20.5242 42.636 20.4868C42.5457 20.4495 42.4637 20.3946 42.3946 20.3256C42.3255 20.2565 42.2707 20.1744 42.2333 20.0842C42.1959 19.9939 42.1767 19.8972 42.1767 19.7994C42.1767 19.7017 42.1959 19.605 42.2333 19.5147ZM19.0799 42.6682C19.1172 42.5779 19.1721 42.4959 19.2411 42.4268L21.3456 40.3223C21.4147 40.2533 21.4967 40.1984 21.587 40.1611C21.6773 40.1237 21.774 40.1044 21.8717 40.1044C21.9694 40.1044 22.0662 40.1237 22.1564 40.1611C22.2467 40.1984 22.3287 40.2533 22.3978 40.3223C22.4669 40.3914 22.5217 40.4735 22.5591 40.5637C22.5965 40.654 22.6157 40.7507 22.6157 40.8485C22.6157 40.9462 22.5965 41.0429 22.5591 41.1332C22.5217 41.2235 22.4669 41.3055 22.3978 41.3746L20.2934 43.479C20.2243 43.5481 20.1423 43.6029 20.052 43.6403C19.9617 43.6777 19.865 43.6969 19.7673 43.6969C19.6695 43.6969 19.5728 43.6777 19.4825 43.6403C19.3923 43.6029 19.3102 43.5481 19.2411 43.479C19.1721 43.4099 19.1172 43.3279 19.0799 43.2376C19.0425 43.1474 19.0232 43.0506 19.0232 42.9529C19.0232 42.8552 19.0425 42.7585 19.0799 42.6682ZM44.4991 43.479L42.3946 41.3746C42.2551 41.235 42.1767 41.0458 42.1767 40.8485C42.1767 40.6511 42.2551 40.4619 42.3946 40.3223C42.5341 40.1828 42.7234 40.1044 42.9207 40.1044C43.1181 40.1044 43.3073 40.1828 43.4468 40.3223L45.5513 42.4268C45.6205 42.4958 45.6753 42.5779 45.7128 42.6681C45.7502 42.7584 45.7695 42.8552 45.7695 42.9529C45.7695 43.0506 45.7502 43.1474 45.7128 43.2377C45.6753 43.328 45.6205 43.41 45.5513 43.479C45.4823 43.5484 45.4004 43.6034 45.3101 43.6409C45.2198 43.6785 45.123 43.6978 45.0252 43.6978C44.9274 43.6978 44.8306 43.6785 44.7403 43.6409C44.65 43.6034 44.568 43.5484 44.4991 43.479ZM20.052 17.0076C20.1423 17.045 20.2243 17.0998 20.2934 17.1689L22.3978 19.2733C22.467 19.3424 22.5219 19.4244 22.5593 19.5147C22.5967 19.6049 22.616 19.7017 22.616 19.7994C22.616 19.8972 22.5967 19.9939 22.5593 20.0842C22.5219 20.1745 22.467 20.2565 22.3978 20.3256C22.3289 20.3949 22.2469 20.4499 22.1566 20.4875C22.0663 20.525 21.9695 20.5444 21.8717 20.5444C21.7739 20.5444 21.6771 20.525 21.5868 20.4875C21.4965 20.4499 21.4145 20.3949 21.3456 20.3256L19.2411 18.2211C19.1721 18.152 19.1172 18.07 19.0799 17.9797C19.0425 17.8895 19.0232 17.7927 19.0232 17.695C19.0232 17.5973 19.0425 17.5005 19.0799 17.4103C19.1172 17.32 19.1721 17.238 19.2411 17.1689C19.3102 17.0998 19.3923 17.045 19.4825 17.0076C19.5728 16.9702 19.6695 16.951 19.7673 16.951C19.865 16.951 19.9617 16.9702 20.052 17.0076ZM20.4899 30.324C20.4899 23.7487 25.8202 18.4176 32.3963 18.4176C38.9723 18.4176 44.3027 23.7487 44.3027 30.324C44.3027 35.5993 40.8684 40.0657 36.117 41.6291V48.9277H34.6287V51.1602H30.1638V51.1599H30.1637V48.9277H28.6755V48.9275H28.6755V43.7184H28.6755V41.6291C23.9241 40.0657 20.4899 35.5993 20.4899 30.324Z" fill="url(#paint0_linear_241_2928)"/>
</g>
</g>
<defs>
<linearGradient id="paint0_linear_241_2928" x1="32.3962" y1="11.7202" x2="32.3962" y2="51.1602" gradientUnits="userSpaceOnUse">
<stop stop-color="#3F9FFF"/>
<stop offset="1" stop-color="#0683FF"/>
</linearGradient>
</defs>
</svg>
