<svg width="64" height="64" viewBox="0 0 64 64" fill="none" xmlns="http://www.w3.org/2000/svg">
<g id="Group 13671">
<circle id="Ellipse 148" cx="32" cy="32" r="32" fill="#0080FF" fill-opacity="0.1"/>
<g id="&#231;&#148;&#179;&#230;&#138;&#165; 1">
<path id="Vector" d="M46.3142 18H17.6858C17.3067 18 17 18.3067 17 18.6858V25.4968C17 25.8759 17.3067 26.1826 17.6858 26.1826H46.3142C46.6933 26.1826 47 25.8759 47 25.4968V18.6858C47 18.3067 46.6933 18 46.3142 18ZM32.8114 22.907C32.8114 23.2861 32.5048 23.5928 32.1257 23.5928H30.4942C30.1151 23.5928 29.8085 23.2861 29.8085 22.907V21.2756C29.8085 20.8965 30.1151 20.5898 30.4942 20.5898H32.1257C32.5048 20.5898 32.8114 20.8965 32.8114 21.2756V22.907ZM44.0013 22.907C44.0013 23.2861 43.6946 23.5928 43.3155 23.5928H36.5002C36.1211 23.5928 35.8144 23.2861 35.8144 22.907V21.2756C35.8144 20.8965 36.1211 20.5898 36.5002 20.5898H43.3155C43.6946 20.5898 44.0013 20.8965 44.0013 21.2756V22.907ZM46.3142 28.8917H17.6858C17.3067 28.8917 17 29.1984 17 29.5775V36.3885C17 36.7676 17.3067 37.0743 17.6858 37.0743H46.3142C46.6933 37.0743 47 36.7676 47 36.3885V29.5775C47 29.1984 46.6933 28.8917 46.3142 28.8917ZM32.8114 33.7987C32.8114 34.1778 32.5048 34.4845 32.1257 34.4845H30.4942C30.1151 34.4845 29.8085 34.1778 29.8085 33.7987V32.1673C29.8085 31.7882 30.1151 31.4815 30.4942 31.4815H32.1257C32.5048 31.4815 32.8114 31.7882 32.8114 32.1673V33.7987ZM44.0013 33.7987C44.0013 34.1778 43.6946 34.4845 43.3155 34.4845H36.5002C36.1211 34.4845 35.8144 34.1778 35.8144 33.7987V32.1673C35.8144 31.7882 36.1211 31.4815 36.5002 31.4815H43.3155C43.6946 31.4815 44.0013 31.7882 44.0013 32.1673V33.7987ZM46.3142 39.8302H17.6858C17.3067 39.8302 17 40.1369 17 40.516V47.327C17 47.7061 17.3067 48.0128 17.6858 48.0128H46.3142C46.6933 48.0128 47 47.7061 47 47.327V40.516C47 40.1369 46.6933 39.8302 46.3142 39.8302ZM32.8114 44.7372C32.8114 45.1163 32.5048 45.423 32.1257 45.423H30.4942C30.1151 45.423 29.8085 45.1163 29.8085 44.7372V43.1058C29.8085 42.7267 30.1151 42.42 30.4942 42.42H32.1257C32.5048 42.42 32.8114 42.7267 32.8114 43.1058V44.7372ZM44.0013 44.7372C44.0013 45.1163 43.6946 45.423 43.3155 45.423H36.5002C36.1211 45.423 35.8144 45.1163 35.8144 44.7372V43.1058C35.8144 42.7267 36.1211 42.42 36.5002 42.42H43.3155C43.6946 42.42 44.0013 42.7267 44.0013 43.1058V44.7372Z" fill="url(#paint0_linear_245_3002)"/>
</g>
</g>
<defs>
<linearGradient id="paint0_linear_245_3002" x1="32" y1="18" x2="32" y2="48.0128" gradientUnits="userSpaceOnUse">
<stop stop-color="#3F9FFF"/>
<stop offset="1" stop-color="#0783FF"/>
</linearGradient>
</defs>
</svg>
