<svg width="64" height="64" viewBox="0 0 64 64" fill="none" xmlns="http://www.w3.org/2000/svg">
<g id="Group 13660">
<circle id="Ellipse 148" cx="32" cy="32" r="32" fill="#0080FF" fill-opacity="0.1"/>
<g id="&#229;&#183;&#178;&#229;&#174;&#140;&#230;&#136;&#144;&#232;&#174;&#162;&#229;&#141;&#149; (1) 1">
<path id="Vector" d="M27.5356 18.6928C26.7118 18.6928 26.0401 18.0248 26.0401 17.1973V17.0971C26.0401 16.2695 26.7081 15.6016 27.5356 15.6016H33.8146C34.6421 15.6016 35.3101 16.2695 35.3101 17.0971V17.1973C35.3101 18.0211 34.6421 18.6928 33.8146 18.6928H27.5356ZM31.0944 36.5275C31.6437 36.5275 32.089 36.0822 32.089 35.533C32.089 34.9838 31.6437 34.5385 31.0944 34.5385H24.1958C23.6466 34.5385 23.2013 34.9838 23.2013 35.533C23.2013 36.0822 23.6466 36.5275 24.1958 36.5275H31.0944ZM24.1958 29.5547C23.6466 29.5547 23.2013 30 23.2013 30.5492C23.2013 31.0984 23.6466 31.5438 24.1958 31.5438H37.147C37.6962 31.5438 38.1415 31.0984 38.1415 30.5492C38.1415 30 37.6962 29.5547 37.147 29.5547H24.1958ZM24.1958 24.5709C23.6466 24.5709 23.2013 25.0162 23.2013 25.5654C23.2013 26.1146 23.6466 26.56 24.1958 26.56H37.147C37.6962 26.56 38.1415 26.1146 38.1415 25.5654C38.1415 25.0162 37.6962 24.5709 37.147 24.5709H24.1958ZM40.5573 34.5348C36.4345 34.5348 33.0835 37.8857 33.0835 42.0086C33.0835 43.6896 33.6476 45.2408 34.5901 46.4914C34.5716 46.4914 34.5567 46.4951 34.5382 46.4951H21.8208C20.1694 46.4951 18.8335 45.1555 18.8335 43.5078V19.6242C18.8335 17.9729 20.1731 16.6369 21.8208 16.6369H25.0901C25.0604 16.7891 25.0419 16.9412 25.0419 17.1008V17.201C25.0419 18.574 26.1589 19.691 27.5319 19.691H33.8108C35.1839 19.691 36.3009 18.574 36.3009 17.201V17.1008C36.3009 16.9412 36.2823 16.7854 36.2526 16.6369H39.522C41.1733 16.6369 42.5093 17.9766 42.5093 19.6242V34.8057C41.8896 34.635 41.2364 34.5348 40.5573 34.5348ZM44.2868 40.3572C44.4798 40.1643 44.4798 39.8488 44.2868 39.6521C44.0938 39.4592 43.7784 39.4592 43.5817 39.6521L40.0601 43.1738L38.2343 41.348C38.0413 41.1514 37.7259 41.1514 37.5292 41.348C37.3325 41.541 37.3325 41.8564 37.5292 42.0531L39.7075 44.2314C39.804 44.3279 39.9339 44.3762 40.0601 44.3762C40.1862 44.3762 40.3161 44.3279 40.4126 44.2314L44.2868 40.3572ZM40.561 35.533C44.1384 35.533 47.0366 38.4313 47.0366 42.0086C47.0366 45.5859 44.1384 48.4842 40.561 48.4842C36.9837 48.4842 34.0854 45.5859 34.0854 42.0086C34.0817 38.4313 36.9837 35.533 40.561 35.533Z" fill="url(#paint0_linear_241_2924)"/>
</g>
</g>
<defs>
<linearGradient id="paint0_linear_241_2924" x1="32.9351" y1="15.6016" x2="32.9351" y2="48.4842" gradientUnits="userSpaceOnUse">
<stop stop-color="#0080FF"/>
<stop offset="1" stop-color="#3C9DFF"/>
</linearGradient>
</defs>
</svg>
