<svg width="64" height="64" viewBox="0 0 64 64" fill="none" xmlns="http://www.w3.org/2000/svg">
<g id="Group 13666">
<circle id="Ellipse 148" cx="32" cy="32" r="32" fill="#0080FF" fill-opacity="0.1"/>
<g id="&#232;&#175;&#132;&#228;&#187;&#183;&#230;&#128;&#187;&#231;&#187;&#147;">
<path id="Vector" d="M37.2664 24.6665H45.2664L35.9331 16.6665V23.3332C35.9331 24.1332 36.4664 24.6665 37.2664 24.6665ZM37.7998 44.5332H37.6664L36.5998 47.3332L39.3998 46.5332H39.5331L46.5998 40.3998L44.7331 38.3998L37.7998 44.5332Z" fill="url(#paint0_linear_245_2975)"/>
<path id="Vector_2" d="M45.2666 25.9998H35.9333C35.1333 25.9998 34.5999 25.4665 34.5999 24.6665V16.6665H23.9333C22.4666 16.6665 21.2666 17.8665 21.2666 19.3332V44.6665C21.2666 46.1332 22.4666 47.3332 23.9333 47.3332H31.6666L45.2666 33.8665V25.9998ZM36.5999 33.9998H25.9333C25.5333 33.9998 25.2666 33.7332 25.2666 33.3332C25.2666 32.9332 25.5333 32.6665 25.9333 32.6665H36.5999C36.9999 32.6665 37.2666 32.9332 37.2666 33.3332C37.2666 33.7332 36.8666 33.9998 36.5999 33.9998ZM40.5999 29.9998H25.9333C25.5333 29.9998 25.2666 29.7332 25.2666 29.3332C25.2666 28.9332 25.5333 28.6665 25.9333 28.6665H40.5999C40.9999 28.6665 41.2666 28.9332 41.2666 29.3332C41.2666 29.7332 40.8666 29.9998 40.5999 29.9998ZM49.2666 37.4665L48.1999 36.1332C48.0666 35.9998 47.9333 35.9998 47.7999 36.1332L46.4666 37.1998C46.3333 37.3332 46.3333 37.4665 46.4666 37.5998L47.5333 38.9332C47.6666 39.0665 47.7999 39.0665 47.9333 38.9332L49.2666 37.8665C49.3999 37.8665 49.3999 37.5998 49.2666 37.4665Z" fill="url(#paint1_linear_245_2975)"/>
</g>
</g>
<defs>
<linearGradient id="paint0_linear_245_2975" x1="41.2664" y1="16.6665" x2="41.2664" y2="47.3332" gradientUnits="userSpaceOnUse">
<stop stop-color="#0B85FF"/>
<stop offset="1" stop-color="#3A9DFF"/>
</linearGradient>
<linearGradient id="paint1_linear_245_2975" x1="35.3166" y1="16.6665" x2="35.3166" y2="47.3332" gradientUnits="userSpaceOnUse">
<stop stop-color="#0B85FF"/>
<stop offset="1" stop-color="#3A9DFF"/>
</linearGradient>
</defs>
</svg>
