<svg width="64" height="64" viewBox="0 0 64 64" fill="none" xmlns="http://www.w3.org/2000/svg">
<g id="Group 13665">
<circle id="Ellipse 148" cx="32" cy="32" r="32" fill="#0080FF" fill-opacity="0.1"/>
<g id="&#231;&#148;&#179;&#230;&#138;&#165; 1">
<path id="Vector" d="M27.1664 44.8062L27.2076 44.7777C26.8246 44.3048 26.4253 43.8482 25.9847 43.4283C23.9302 41.4716 21.2786 40.1468 18.3636 39.7146L18.3594 39.7473C18.3059 39.7432 18.2524 39.7228 18.1989 39.7309C17.4783 39.7921 16.9431 40.424 17.0049 41.1414C17.0584 41.757 17.5442 42.2095 18.1371 42.291L18.133 42.3195C20.4346 42.6987 22.5303 43.7545 24.1607 45.3076C24.4695 45.6011 24.7495 45.915 25.0213 46.2411C25.2601 46.6896 25.7541 46.979 26.2976 46.9341C27.0182 46.873 27.5534 46.2411 27.4916 45.5237C27.4711 45.2424 27.3393 45.006 27.1664 44.8062ZM43.8003 39.7269C43.7427 39.7228 43.6933 39.7432 43.6397 39.7432L43.6356 39.7106C40.7206 40.1468 38.069 41.4675 36.0145 43.4243C35.5739 43.8442 35.1704 44.3007 34.7916 44.7736L34.8328 44.8021C34.6599 45.0019 34.5323 45.2383 34.5075 45.5155C34.4458 46.2289 34.9769 46.8608 35.7016 46.926C36.2451 46.9749 36.7391 46.6855 36.9779 46.233C37.2497 45.9069 37.5338 45.5889 37.8385 45.2995C39.4689 43.7422 41.5646 42.6864 43.8662 42.3114L43.8621 42.2828C44.455 42.2013 44.9367 41.7488 44.9943 41.1333C45.0561 40.424 44.525 39.7921 43.8003 39.7269ZM43.2157 32.8702C46.5301 27.1875 44.492 20.2778 42.9769 19.4136C42.141 18.9367 39.6254 19.2465 36.9821 20.5632C35.3722 16.6212 32.2718 14 31.0037 14C29.7356 14 26.6311 16.6212 25.0171 20.5632C22.3738 19.2465 19.8581 18.9367 19.0223 19.4136C17.5072 20.2819 15.4732 27.1875 18.7835 32.8702C21.4145 37.3829 26.1494 40.3954 29.2497 40.7338V46.9341C29.2497 47.8921 30.032 48.6667 30.9996 48.6667C31.9672 48.6667 32.7495 47.8921 32.7495 46.9341V40.7338C35.8498 40.3995 40.5847 37.3829 43.2157 32.8702Z" fill="url(#paint0_linear_245_2967)"/>
</g>
</g>
<defs>
<linearGradient id="paint0_linear_245_2967" x1="31" y1="14" x2="31" y2="48.6667" gradientUnits="userSpaceOnUse">
<stop stop-color="#3F9FFF"/>
<stop offset="1" stop-color="#0783FF"/>
</linearGradient>
</defs>
</svg>
