<svg width="64" height="64" viewBox="0 0 64 64" fill="none" xmlns="http://www.w3.org/2000/svg">
<g id="Group 13664">
<circle id="Ellipse 148" cx="32" cy="32" r="32" fill="#0080FF" fill-opacity="0.1"/>
<g id="&#231;&#148;&#179;&#230;&#138;&#165; 1">
<path id="Vector" d="M18 21.3077C18 20.6963 18.2427 20.1098 18.6747 19.6771C19.1067 19.2445 19.6928 19.0009 20.3042 19H45.6958C46.9685 19 48 20.0338 48 21.3008V39.3908C47.9994 40.0006 47.757 40.5853 47.3259 41.0166C46.8948 41.4479 46.3102 41.6906 45.7004 41.6915H27.4304L20.1635 44.4538C18.9692 44.9073 18 44.2462 18 42.9665V21.3077ZM23.7692 26.5C23.7692 27.4623 24.5469 28.2308 25.5058 28.2308H40.4942C40.9533 28.2308 41.3935 28.0484 41.7181 27.7238C42.0427 27.3993 42.225 26.959 42.225 26.5C42.225 26.041 42.0427 25.6007 41.7181 25.2762C41.3935 24.9516 40.9533 24.7692 40.4942 24.7692H25.5058C24.5388 24.7692 23.7692 25.5446 23.7692 26.5ZM23.7692 33.4231C23.7692 34.3854 24.5423 35.1538 25.4954 35.1538H35.8892C36.8308 35.1538 37.6154 34.3785 37.6154 33.4231C37.6154 32.4608 36.8423 31.6923 35.8892 31.6923H25.4954C24.5538 31.6923 23.7692 32.4677 23.7692 33.4231Z" fill="url(#paint0_linear_245_2963)"/>
</g>
</g>
<defs>
<linearGradient id="paint0_linear_245_2963" x1="33" y1="19" x2="33" y2="44.5967" gradientUnits="userSpaceOnUse">
<stop stop-color="#3B9DFF"/>
<stop offset="1" stop-color="#0884FF"/>
</linearGradient>
</defs>
</svg>
