<svg width="64" height="64" viewBox="0 0 64 64" fill="none" xmlns="http://www.w3.org/2000/svg">
<g id="Group 13668">
<circle id="Ellipse 148" cx="32" cy="32" r="32" fill="#0080FF" fill-opacity="0.1"/>
<g id="&#231;&#148;&#179;&#230;&#138;&#165; 1">
<path id="Vector" d="M44.8571 19H19.1429C17.9643 19 17 19.9643 17 21.1429V44.7143C17 45.8929 17.9643 46.8571 19.1429 46.8571H44.8571C46.0357 46.8571 47 45.8929 47 44.7143V21.1429C47 19.9643 46.0357 19 44.8571 19ZM26.1867 41.6673L24.2779 40.6638L22.3692 41.6673L22.7337 39.5418L21.1895 38.0365L23.3236 37.7264L24.278 35.7927L25.2324 37.7264L27.3665 38.0365L25.8223 39.5418L26.1867 41.6673ZM25.8222 27.939L26.1867 30.0645L24.2779 29.061L22.3692 30.0645L22.7337 27.939L21.1895 26.4338L23.3236 26.1237L24.278 24.1899L25.2324 26.1237L27.3665 26.4338L25.8222 27.939ZM42.8106 39.9947C42.8106 40.2304 42.6177 40.4233 42.382 40.4233H30.382C30.1463 40.4233 29.9534 40.2304 29.9534 39.9947V38.709C29.9534 38.4733 30.1463 38.2804 30.382 38.2804H42.382C42.6177 38.2804 42.8106 38.4732 42.8106 38.709V39.9947ZM42.8106 28.3919C42.8106 28.6276 42.6177 28.8205 42.382 28.8205H30.382C30.1463 28.8205 29.9534 28.6277 29.9534 28.3919V27.1062C29.9534 26.8705 30.1463 26.6776 30.382 26.6776H42.382C42.6177 26.6776 42.8106 26.8704 42.8106 27.1062V28.3919Z" fill="url(#paint0_linear_245_2983)"/>
</g>
</g>
<defs>
<linearGradient id="paint0_linear_245_2983" x1="32" y1="19" x2="32" y2="46.8571" gradientUnits="userSpaceOnUse">
<stop stop-color="#3F9FFF"/>
<stop offset="1" stop-color="#0783FF"/>
</linearGradient>
</defs>
</svg>
