<svg width="64" height="64" viewBox="0 0 64 64" fill="none" xmlns="http://www.w3.org/2000/svg">
<g id="Group 13672">
<circle id="Ellipse 148" cx="32" cy="32" r="32" fill="#0080FF" fill-opacity="0.1"/>
<g id="&#231;&#148;&#179;&#230;&#138;&#165; 1">
<path id="Union" fill-rule="evenodd" clip-rule="evenodd" d="M24.5882 32.2941C24.5882 34.1134 23.1134 35.5882 21.2941 35.5882C19.4748 35.5882 18 34.1134 18 32.2941C18 30.4748 19.4748 29 21.2941 29C23.1134 29 24.5882 30.4748 24.5882 32.2941ZM35.2941 32.2941C35.2941 34.1134 33.8193 35.5882 32 35.5882C30.1807 35.5882 28.7059 34.1134 28.7059 32.2941C28.7059 30.4748 30.1807 29 32 29C33.8193 29 35.2941 30.4748 35.2941 32.2941ZM42.7059 35.5882C44.5252 35.5882 46 34.1134 46 32.2941C46 30.4748 44.5252 29 42.7059 29C40.8866 29 39.4118 30.4748 39.4118 32.2941C39.4118 34.1134 40.8866 35.5882 42.7059 35.5882Z" fill="url(#paint0_linear_245_3006)"/>
</g>
</g>
<defs>
<linearGradient id="paint0_linear_245_3006" x1="32" y1="29" x2="32" y2="35.5882" gradientUnits="userSpaceOnUse">
<stop stop-color="#0080FF"/>
<stop offset="1" stop-color="#0080FF"/>
</linearGradient>
</defs>
</svg>
