<svg width="64" height="64" viewBox="0 0 64 64" fill="none" xmlns="http://www.w3.org/2000/svg">
<g id="Group 13659">
<circle id="Ellipse 148" cx="32" cy="32" r="32" fill="#0080FF" fill-opacity="0.1"/>
<g id="&#229;&#138;&#159;&#231;&#142;&#135; 1">
<path id="Vector" d="M41.7778 21.3443C42.3889 21.3443 43 21.8332 43.1222 22.5665L46.5445 42.8554C46.6667 43.2221 46.5445 43.5887 46.3 43.8332C46.0556 44.0776 45.6889 44.3221 45.3222 44.3221H17.5778C17.2111 44.3221 16.8445 44.1998 16.6 43.8332C16.3556 43.5887 16.2333 43.2221 16.3556 42.8554L19.7778 22.5665C19.9 21.9554 20.3889 21.4665 21.1222 21.3443H41.7778ZM40.3111 24.1554H22.2222C21.6111 24.1554 21 24.6443 20.8778 25.3776L18.6778 40.1665C18.5556 40.5332 18.6778 40.8998 18.9222 41.1443C19.1667 41.3887 19.5333 41.6332 19.9 41.6332H42.5111C42.8778 41.6332 43.2445 41.5109 43.4889 41.1443C43.7333 40.8998 43.8556 40.5332 43.7333 40.1665L41.4111 25.2554C41.5333 24.6443 40.9222 24.1554 40.3111 24.1554ZM28.8222 33.6887C29.5556 33.6887 30.1667 34.2998 30.1667 35.0332V39.0665C30.1667 39.4332 30.0445 39.7998 29.6778 39.9221C29.4333 40.1665 29.1889 40.2887 28.8222 40.4109H22.5889C22.2222 40.4109 21.8556 40.2887 21.6111 39.9221C21.3667 39.5554 21.2445 39.1887 21.3667 38.6998L22.1 34.6665C22.2222 34.0554 22.8333 33.5665 23.4445 33.6887H28.8222ZM39.3333 33.6887C39.9445 33.6887 40.5556 34.1776 40.6778 34.6665L41.4111 38.6998C41.5333 39.0665 41.4111 39.5554 41.1667 39.9221C40.9222 40.1665 40.5556 40.4109 40.1889 40.4109H33.9556C33.5889 40.4109 33.2222 40.2887 33.1 39.9221C32.8556 39.6776 32.7333 39.4332 32.6111 39.0665V35.0332C32.6111 34.2998 33.2222 33.6887 33.9556 33.6887H39.3333ZM28.8222 25.4998C29.5556 25.4998 30.1667 26.1109 30.1667 26.8443V30.8776C30.1667 31.2443 30.0445 31.6109 29.6778 31.7332C29.4333 31.9776 29.1889 32.0998 28.8222 32.2221H23.9333C23.5667 32.2221 23.2 32.0998 22.9556 31.7332C22.7111 31.3665 22.5889 30.9998 22.7111 30.5109L23.4445 26.4776C23.5667 25.8665 24.1778 25.4998 24.7889 25.4998H28.8222ZM37.9889 25.4998C38.6 25.4998 39.2111 25.9887 39.3333 26.4776L40.0667 30.5109C40.1889 30.8776 40.0667 31.3665 39.8222 31.7332C39.5778 31.9776 39.2111 32.2221 38.8445 32.2221H33.9556C33.5889 32.2221 33.2222 32.0998 33.1 31.7332C32.8556 31.4887 32.7333 31.2443 32.6111 30.8776V26.8443C32.6111 26.1109 33.2222 25.4998 33.9556 25.4998H37.9889ZM48.0111 28.6776L49.4778 30.2665C49.7222 30.5109 49.7222 30.9998 49.4778 31.2443C49.2333 31.4887 48.7445 31.4887 48.6222 31.2443L47.1556 29.6554C46.9111 29.4109 46.9111 28.9221 47.1556 28.6776C47.2778 28.3109 47.7667 28.3109 48.0111 28.6776ZM44.5889 18.5332C46.3 19.5109 47.4 21.3443 47.4 23.4221C47.4 25.3776 46.3 27.3332 44.5889 28.3109H44.4667L43.4889 22.0776C43.3667 21.5887 43 21.0998 42.5111 21.0998H37.0111C37.5 20.1221 38.3556 19.2665 39.2111 18.5332C40.8 17.5554 43 17.5554 44.5889 18.5332ZM49.8445 22.6887H52.0445C52.5333 22.6887 52.6556 22.9332 52.7778 23.4221C52.7778 23.7887 52.5333 24.1554 52.1667 24.1554H49.8445C49.4778 24.1554 49.1111 23.9109 49.1111 23.5443V23.4221C49.2333 23.0554 49.4778 22.6887 49.8445 22.6887ZM49.3556 15.7221C49.6 15.9665 49.6 16.4554 49.3556 16.6998L47.8889 18.2887C47.5222 18.4109 47.1556 18.4109 46.9111 18.2887C46.6667 18.0443 46.6667 17.5554 46.9111 17.3109L48.3778 15.7221C48.6222 15.5998 48.9889 15.5998 49.3556 15.7221ZM35.3 15.5998L36.7667 17.1887C37.0111 17.4332 37.0111 17.9221 36.7667 18.1665C36.5222 18.4109 36.0333 18.4109 35.9111 18.1665L34.4445 16.5776C34.2 16.3332 34.2 15.8443 34.4445 15.5998C34.5667 15.3554 35.0556 15.3554 35.3 15.5998ZM42.0222 12.6665C42.3889 12.6665 42.7556 12.9109 42.7556 13.2776V15.5998C42.7556 15.9665 42.5111 16.3332 42.1445 16.3332H42.0222C41.5333 16.2109 41.2889 15.8443 41.2889 15.5998V13.3998C41.2889 13.0332 41.5333 12.6665 42.0222 12.6665C41.9 12.6665 41.9 12.6665 42.0222 12.6665Z" fill="url(#paint0_linear_241_2920)"/>
</g>
</g>
<defs>
<linearGradient id="paint0_linear_241_2920" x1="34.5427" y1="12.6665" x2="34.5427" y2="44.3221" gradientUnits="userSpaceOnUse">
<stop stop-color="#0080FF"/>
<stop offset="1" stop-color="#3F9FFF"/>
</linearGradient>
</defs>
</svg>
