<svg width="64" height="64" viewBox="0 0 64 64" fill="none" xmlns="http://www.w3.org/2000/svg">
<g id="Group 13662">
<circle id="Ellipse 148" cx="32" cy="32" r="32" fill="#0080FF" fill-opacity="0.1"/>
<g id="&#231;&#148;&#179;&#230;&#138;&#165; 1">
<path id="Vector" d="M46.1584 21.6319H36.3268C36.15 20.3503 35.5114 19.1754 34.5289 18.324C33.5464 17.4727 32.2864 17.0024 30.9814 17H20.4755C20.0841 17 19.7089 17.1541 19.4322 17.4284C19.1555 17.7026 19 18.0746 19 18.4625V43.1727C19 44.1825 19.8266 45 20.8434 45H46.1566C47.1753 45 48 44.1807 48 43.1727V23.4592C48.0002 23.2193 47.9528 22.9817 47.8603 22.7601C47.7679 22.5384 47.6323 22.3369 47.4612 22.1672C47.2902 21.9975 47.0871 21.8629 46.8636 21.7711C46.64 21.6792 46.4004 21.6319 46.1584 21.6319ZM24.3907 37.4143C23.8904 37.4143 23.4844 37.0154 23.4844 36.5213C23.4844 36.0272 23.8904 35.6283 24.3907 35.6283C24.891 35.6283 25.297 36.0272 25.297 36.5213C25.297 37.0154 24.891 37.4143 24.3907 37.4143ZM24.3907 30.8006C23.8904 30.8006 23.4844 30.4017 23.4844 29.9076C23.4844 29.4135 23.8904 29.0146 24.3907 29.0146C24.891 29.0146 25.297 29.4135 25.297 29.9076C25.297 30.4017 24.891 30.8006 24.3907 30.8006ZM43.5047 36.5375C43.5042 36.7846 43.405 37.0216 43.2286 37.1963C43.0523 37.3711 42.8133 37.4695 42.564 37.47H28.1301C27.8808 37.4695 27.6418 37.3711 27.4655 37.1963C27.2891 37.0216 27.1899 36.7846 27.1894 36.5375V36.5051C27.1899 36.258 27.2891 36.0211 27.4655 35.8463C27.6418 35.6715 27.8808 35.5731 28.1301 35.5726H42.564C42.8133 35.5731 43.0523 35.6715 43.2286 35.8463C43.405 36.0211 43.5042 36.258 43.5047 36.5051V36.5375ZM43.5047 29.9238C43.5042 30.1709 43.405 30.4078 43.2286 30.5826C43.0523 30.7574 42.8133 30.8558 42.564 30.8563H28.1301C27.8808 30.8558 27.6418 30.7574 27.4655 30.5826C27.2891 30.4078 27.1899 30.1709 27.1894 29.9238V29.8914C27.1899 29.6443 27.2891 29.4074 27.4655 29.2326C27.6418 29.0578 27.8808 28.9594 28.1301 28.9589H42.564C42.8133 28.9594 43.0523 29.0578 43.2286 29.2326C43.405 29.4074 43.5042 29.6443 43.5047 29.8914V29.9238Z" fill="url(#paint0_linear_241_2932)"/>
</g>
</g>
<defs>
<linearGradient id="paint0_linear_241_2932" x1="33.5" y1="17" x2="33.5" y2="45" gradientUnits="userSpaceOnUse">
<stop stop-color="#41A0FF"/>
<stop offset="1" stop-color="#0482FF"/>
</linearGradient>
</defs>
</svg>
