<svg width="64" height="64" viewBox="0 0 64 64" fill="none" xmlns="http://www.w3.org/2000/svg">
<g id="Group 13658">
<circle id="Ellipse 148" cx="32" cy="32" r="32" fill="#0080FF" fill-opacity="0.1"/>
<g id="&#231;&#148;&#179;&#230;&#138;&#165; 1">
<path id="Vector" d="M32.9458 41.3221V40.873C32.9458 40.7525 32.9549 40.6137 32.975 40.4531H25.8348C25.3327 40.4531 24.9037 40.2742 24.5477 39.9163C24.1917 39.5585 24.0128 39.1203 24.0128 38.6018C24.0128 38.0833 24.1917 37.6415 24.5477 37.2728C24.9037 36.9039 25.3327 36.7196 25.8348 36.7196L34.2457 36.7196C34.9777 35.5438 35.9472 34.6054 37.1503 33.9099C38.3552 33.2125 39.6806 32.8638 41.1266 32.8638C41.28 32.8638 41.4443 32.8692 41.6195 32.8802C41.7911 32.8875 41.9646 32.9039 42.138 32.924V25.5118H37.9171C37.3785 25.5118 36.9166 25.3877 36.5296 25.1394C36.1444 24.8893 35.8321 24.5807 35.5911 24.2119C35.3502 23.8468 35.1713 23.4415 35.0563 23.0033C34.9412 22.5652 34.8828 22.1562 34.8828 21.7765V18.043H21.4824C21.2049 18.043 20.9274 18.1507 20.7156 18.3698C20.5039 18.5889 20.3998 18.8774 20.3998 19.164V41.209H20.3979V44.9771C20.3979 45.2656 20.5038 45.5522 20.7156 45.7731C20.9274 45.9904 21.2049 46.0981 21.4824 46.0981H24.0493C24.0748 46.1018 24.1004 46.1018 24.1278 46.1018H34.3898C33.9298 45.4244 33.5719 44.685 33.3218 43.8763C33.0699 43.0675 32.9458 42.2167 32.9458 41.3221ZM24.5477 29.7875C24.9037 29.426 25.3327 29.2508 25.8348 29.2508H36.6756C37.1758 29.2508 37.603 29.426 37.9608 29.7875C38.3168 30.1454 38.4939 30.5835 38.4939 31.1002C38.4939 31.6187 38.3168 32.0623 37.9608 32.4311C37.603 32.7999 37.1758 32.9825 36.6756 32.9825H25.8348C25.3327 32.9825 24.9037 32.7999 24.5477 32.4311C24.1917 32.0623 24.0128 31.6187 24.0128 31.1002C24.0128 30.5835 24.1917 30.1454 24.5477 29.7875ZM47.0965 38.81C46.7605 38.014 46.3005 37.3166 45.7235 36.7196C45.1448 36.1226 44.4712 35.648 43.7007 35.2992C42.9303 34.9505 42.1014 34.7753 41.2142 34.7753C40.3452 34.7753 39.5273 34.9505 38.7568 35.2992C37.9864 35.648 37.3109 36.1226 36.7339 36.7196C36.1552 37.3166 35.6969 38.014 35.3592 38.81C35.0215 39.606 34.8535 40.4531 34.8535 41.3513C34.8535 42.2678 35.0215 43.1259 35.3592 43.9219C35.6969 44.7179 36.1552 45.4153 36.7339 46.0104C37.3109 46.6093 37.9864 47.084 38.7568 47.4308C39.5272 47.7814 40.3452 47.9566 41.2142 47.9566C42.1014 47.9566 42.9303 47.7814 43.7007 47.4308C44.4711 47.084 45.1448 46.6093 45.7235 46.0104C46.3005 45.4153 46.7605 44.7179 47.0965 43.9219C47.4324 43.1259 47.6022 42.2678 47.6022 41.3513C47.6022 40.4531 47.4324 39.606 47.0965 38.81ZM42.295 40.8712V45.4079C42.295 45.9593 41.8496 46.4048 41.2982 46.4048C41.0225 46.4048 40.7724 46.2934 40.5935 46.1127C40.4109 45.9319 40.3013 45.6818 40.3013 45.4079V40.8712H37.2123L41.3274 36.8182L45.4406 40.8712H42.295ZM38.8701 23.6022H42.138V19.164C42.138 18.8773 42.0321 18.5889 41.8203 18.3698C41.6085 18.1507 41.331 18.043 41.0535 18.043H36.7012V21.3602C36.7012 21.9335 36.9129 22.5067 37.3365 22.9449C37.76 23.3795 38.3151 23.6022 38.8701 23.6022Z" fill="url(#paint0_linear_241_2919)"/>
</g>
</g>
<defs>
<linearGradient id="paint0_linear_241_2919" x1="34.0001" y1="18.043" x2="34.0001" y2="47.9566" gradientUnits="userSpaceOnUse">
<stop stop-color="#42A1FF"/>
<stop offset="1" stop-color="#0080FF"/>
</linearGradient>
</defs>
</svg>
